# xmcd CD database file
#
# Track frame offsets:
#	150
#	14949
#	28467
#	42226
#	55582
#	68873
#	82831
#	96874
#	110886
#	126241
#	140351
#	152247
#	165534
#	179473
#	193449
#	207664
#	222006
#	236625
#	249386
#	261562
#	274099
#	286380
#	298171
#	310461
#
# Disc length: 4380 seconds
#
# Revision: 4
# Processed by: cddbd v1.5.2PL0 Copyright (c) Steve Scherf et al.
# Submitted via: CDex 1.51
#
DISCID=5c111a18,86111a18
DTITLE=JIMMY YANCEY - Nobody In Mind - nothing but the blues collection
DYEAR=1939
DGENRE=
TTITLE0=Jimmy's Stuff
TTITLE1=Five -Chicago
TTITLE2=La Salle Street Breakdown
TTITLE3=two 'O Clock Blues
TTITLE4=Janie's Joys -Chicago
TTITLE5=Lean Bacon
TTITLE6=Big Bear Train
TTITLE7=Lucille's Lament
TTITLE8=Beezum Blues
TTITLE9=Yancey Limeted
TTITLE10=Rolling The Stone
TTITLE11=Steady Rock
TTITLE12=P. L. K.
TTITLE13=South Side Stuff
TTITLE14=Yaney's Getaway
TTITLE15=How Long Blues
TTITLE16=How Long Blues No.2
TTITLE17=Yancey Stomp
TTITLE18=State Street Special
TTITLE19=Tell 'Em About Me
TTITLE20=Five O'Clock
TTITLE21=Slow And Easy Blues
TTITLE22=The Mellow Blues
TTITLE23=White Sox Stomp
EXTD=Digitally Remastered-History -(20.1946-HI)\r\nBig Joe Turner/Jimmy Yancey\r\nNobody In Mind -CD-1 YEAR: 1939
EXTT0=
EXTT1=
EXTT2=
EXTT3=
EXTT4=
EXTT5=
EXTT6=
EXTT7=
EXTT8=
EXTT9=
EXTT10=
EXTT11=
EXTT12=
EXTT13=
EXTT14=
EXTT15=
EXTT16=
EXTT17=
EXTT18=
EXTT19=
EXTT20=
EXTT21=
EXTT22=
EXTT23=
PLAYORDER=
